<?xml version="1.0" encoding="utf-8"?>
<!-- Generator: Adobe Illustrator 16.0.0, SVG Export Plug-In . SVG Version: 6.00 Build 0)  -->
<!DOCTYPE svg PUBLIC "-//W3C//DTD SVG 1.1//EN" "http://www.w3.org/Graphics/SVG/1.1/DTD/svg11.dtd">
<svg version="1.1" id="Layer_1" xmlns="http://www.w3.org/2000/svg" xmlns:xlink="http://www.w3.org/1999/xlink" x="0px" y="0px"
	 width="191.376px" height="177.666px" viewBox="0 0 191.376 177.666" enable-background="new 0 0 191.376 177.666"
	 xml:space="preserve">
<rect x="79.126" y="87.9" fill="#265F7C" width="34.416" height="1.191"/>
<rect x="151.042" y="88.167" fill="#265F7C" width="10.521" height="1.332"/>
<rect x="30.042" y="88.167" fill="#265F7C" width="10.521" height="1.332"/>
<rect x="96.126" y="2.661" fill="#265F7C" width="1.5" height="14.34"/>
<rect x="171.207" y="86.583" fill="#265F7C" width="9.334" height="1.5"/>
<rect x="95.292" y="89.162" fill="#265F7C" width="1.5" height="10.75"/>
<rect x="95.291" y="92.243" transform="matrix(0.7071 0.7071 -0.7071 0.7071 95.2402 -43.9447)" fill="#265F7C" width="10.75" height="1.5"/>
<rect x="11.208" y="86.246" fill="#265F7C" width="9.334" height="1.5"/>
<rect x="19.208" y="51.246" transform="matrix(0.9452 0.3264 -0.3264 0.9452 18.2817 -4.9453)" fill="#265F7C" width="9.334" height="1.5"/>
<rect x="45.208" y="23.584" transform="matrix(0.6635 0.7481 -0.7481 0.6635 34.986 -29.126)" fill="#265F7C" width="9.334" height="1.501"/>
<rect x="168.811" y="47.667" transform="matrix(0.327 0.945 -0.945 0.327 163.5631 -125.018)" fill="#265F7C" width="1.5" height="9.334"/>
<rect x="142.811" y="19.667" transform="matrix(0.7481 0.6636 -0.6636 0.7481 52.3066 -89.1319)" fill="#265F7C" width="1.501" height="9.334"/>
<rect x="85.873" y="92.243" transform="matrix(-0.7071 0.7071 -0.7071 -0.7071 221.5259 94.2263)" fill="#265F7C" width="10.75" height="1.5"/>
<rect x="95.292" y="140.161" fill="#265F7C" width="1.5" height="10.75"/>
<rect x="131.914" y="127.242" transform="matrix(0.7071 0.7071 -0.7071 0.7071 130.7152 -59.59)" fill="#265F7C" width="10.75" height="1.5"/>
<rect x="48.997" y="127.242" transform="matrix(-0.7071 0.7071 -0.7071 -0.7071 183.3239 180.0491)" fill="#265F7C" width="10.75" height="1.5"/>
</svg>
