<?xml version="1.0" encoding="utf-8"?>
<!-- Generator: Adobe Illustrator 16.0.0, SVG Export Plug-In . SVG Version: 6.00 Build 0)  -->
<!DOCTYPE svg PUBLIC "-//W3C//DTD SVG 1.1//EN" "http://www.w3.org/Graphics/SVG/1.1/DTD/svg11.dtd">
<svg version="1.1" id="Layer_2" xmlns="http://www.w3.org/2000/svg" xmlns:xlink="http://www.w3.org/1999/xlink" x="0px" y="0px"
	 width="191.376px" height="177.666px" viewBox="0 0 191.376 177.666" enable-background="new 0 0 191.376 177.666"
	 xml:space="preserve">
<path fill="#FFFFFF" d="M95.876,113.5c-9.766,0-18.59-5.789-22.482-14.748c-1.074-2.473-1.723-5.072-1.938-7.752H46.125
	c-1.105,0-2-0.895-2-2c0-1.104,0.895-2,2-2h27.251c1.104,0,2,0.896,2,2c0,2.836,0.566,5.582,1.688,8.158
	c3.256,7.498,10.641,12.342,18.812,12.342c8.086,0,15.439-4.773,18.734-12.162c1.17-2.629,1.766-5.434,1.766-8.338
	c0-1.104,0.895-2,2-2h26.75c1.104,0,2,0.896,2,2c0,1.105-0.896,2-2,2h-24.83c-0.221,2.758-0.902,5.43-2.033,7.967
	C114.327,107.794,105.54,113.5,95.876,113.5z"/>
<circle fill="#FFFFFF" cx="95.792" cy="89" r="1.562"/>
<path fill="#FFFFFF" d="M96.042,154.665c-36.346,0-65.916-29.568-65.916-65.916s29.57-65.917,65.916-65.917
	c36.346,0,65.916,29.569,65.916,65.917S132.388,154.665,96.042,154.665z M96.042,26.832c-34.141,0-61.917,27.775-61.917,61.917
	c0,34.14,27.776,61.916,61.917,61.916s61.916-27.775,61.916-61.916C157.958,54.607,130.183,26.832,96.042,26.832z"/>
<polygon fill="#FFFFFF" points="96.792,26.041 92.593,34.5 100.993,34.5 "/>
</svg>
